# xmcd CD database file
#
# Track frame offsets:
#	150
#	23147
#	43189
#	57117
#	73502
#	90617
#	111192
#	127237
#	144085
#	165752
#	184560
#	200912
#
# Disc length: 2876 seconds
#
# Revision: 1
# Processed by: cddbd v1.5.2PL0 Copyright (c) Steve Scherf et al.
# Submitted via: CDex 1.51
#
DISCID=a20b3a0c
DTITLE=Four Pop Stars - The Best Of Slade, Jim Capaldi, Jimmy Cliff and B.T.O.
DYEAR=1995
DGENRE=Rock
TTITLE0=Bachman Turner Overdrive/Hold Back The Water 
TTITLE1=Slade/Cum On Feel The Noize 
TTITLE2=Jimmy Cliff/Suffering In The Land 
TTITLE3=Jim Capaldi/EVE
TTITLE4=Jimmy Cliff/Wild World 
TTITLE5=Jim Capaldi/Oh! How We Danced
TTITLE6=Bachman Turner Overdrive/Hey You 
TTITLE7=Slade/Mama Weer All Crazze Now 
TTITLE8=Jimmy Cliff/Vietnam
TTITLE9=Jim Capaldi/It's All Up To You
TTITLE10=Bachman Turner Overdrive/You Ain't Seen Nothing Yet
TTITLE11=Slade/She Did It To Me
EXTD=data send by k@du - icq 54117360 YEAR: 1995
EXTT0=
EXTT1=
EXTT2=
EXTT3=
EXTT4=
EXTT5=
EXTT6=
EXTT7=
EXTT8=
EXTT9=
EXTT10=
EXTT11=
PLAYORDER=
